<?xml version="1.0" standalone="no"?><!DOCTYPE svg PUBLIC "-//W3C//DTD SVG 1.1//EN" "http://www.w3.org/Graphics/SVG/1.1/DTD/svg11.dtd"><svg class="icon" width="200px" height="195.79px" viewBox="0 0 1046 1024" version="1.1" xmlns="http://www.w3.org/2000/svg"><path fill="#333333" d="M340.059481 31.824231a507.099824 507.099824 0 0 0-337.515952 440.477589 523.067137 523.067137 0 0 0 337.240654 541.236837l22.023879 7.157761a82.589548 82.589548 0 0 0 105.439323-79.561264V744.296731a27.529849 27.529849 0 0 1 27.529849-27.529849h436.623411a104.613427 104.613427 0 0 0 102.135741-82.589548 518.93766 518.93766 0 0 0 11.837835-110.119398A525.269525 525.269525 0 0 0 340.059481 31.824231z m613.91564 580.87982a27.529849 27.529849 0 0 1-27.529849 21.473283H467.247385a82.589548 82.589548 0 0 0-82.589548 82.589548v185.275886a27.529849 27.529849 0 0 1-38.541789 25.327461A440.477589 440.477589 0 1 1 962.784673 524.057936a428.639754 428.639754 0 0 1-8.809552 88.646115z"  /><path fill="#333333" d="M247.283889 399.898316m-55.059699 0a55.059699 55.059699 0 1 0 110.119398 0 55.059699 55.059699 0 1 0-110.119398 0Z"  /><path fill="#333333" d="M408.608806 243.253473m-55.059699 0a55.059699 55.059699 0 1 0 110.119398 0 55.059699 55.059699 0 1 0-110.119398 0Z"  /><path fill="#333333" d="M799.532666 399.898316m-55.059698 0a55.059699 55.059699 0 1 0 110.119397 0 55.059699 55.059699 0 1 0-110.119397 0Z"  /><path fill="#333333" d="M637.381854 243.253473m-55.059699 0a55.059699 55.059699 0 1 0 110.119398 0 55.059699 55.059699 0 1 0-110.119398 0Z"  /></svg>