<?xml version="1.0" standalone="no"?><!DOCTYPE svg PUBLIC "-//W3C//DTD SVG 1.1//EN" "http://www.w3.org/Graphics/SVG/1.1/DTD/svg11.dtd"><svg class="icon" width="200px" height="200.00px" viewBox="0 0 1024 1024" version="1.1" xmlns="http://www.w3.org/2000/svg"><path d="M984.687304 758.316522H39.312696A17.051826 17.051826 0 0 1 22.26087 741.220174V285.629217c0-9.394087 7.635478-17.029565 17.051826-17.029565h945.374608c9.416348 0 17.051826 7.613217 17.051826 17.029565V741.286957a17.051826 17.051826 0 0 1-17.051826 17.051826" fill="#F56C6C" /><path d="M897.224348 22.26087H126.775652a33.391304 33.391304 0 0 0-33.391304 33.391304v111.104a33.391304 33.391304 0 0 0 66.782609 0v-77.690435h318.041043V937.850435h-68.85287a33.391304 33.391304 0 1 0 0 66.782608h204.466087a33.391304 33.391304 0 1 0 0-66.782608h-68.830608V89.043478h318.842434v77.690435a33.391304 33.391304 0 1 0 66.782609 0v-111.081739a33.391304 33.391304 0 0 0-33.391304-33.391304" fill="#4A4A4A" /></svg>
