<?xml version="1.0" standalone="no"?><!DOCTYPE svg PUBLIC "-//W3C//DTD SVG 1.1//EN" "http://www.w3.org/Graphics/SVG/1.1/DTD/svg11.dtd"><svg class="icon" width="200px" height="200.00px" viewBox="0 0 1024 1024" version="1.1" xmlns="http://www.w3.org/2000/svg"><path fill="#333333" d="M608 512a96 96 0 1 0-96 96 96 96 0 0 0 96-96z m64 0a160 160 0 1 1-160-160 160 160 0 0 1 160 160zM864 416a64 64 0 0 1 64 64v64a64 64 0 0 1-64 64h-13.44a339.2 339.2 0 0 1-32 75.52l9.6 9.28a64 64 0 0 1 0 90.88l-44.48 45.12a64 64 0 0 1-90.88 0l-9.28-9.6a345.6 345.6 0 0 1-75.52 32V864a64 64 0 0 1-64 64h-64a64 64 0 0 1-64-64v-13.44a345.6 345.6 0 0 1-75.52-32l-9.28 9.6a64 64 0 0 1-90.88 0l-45.12-44.48a64 64 0 0 1 0-90.88l9.6-9.28a345.6 345.6 0 0 1-32-75.52H160a64 64 0 0 1-64-64v-64a64 64 0 0 1 64-64h13.44a345.6 345.6 0 0 1 32-75.52l-9.6-9.28a64 64 0 0 1 0-90.88l44.48-45.12a64 64 0 0 1 90.88 0l9.28 9.6a345.6 345.6 0 0 1 75.52-32V160a64 64 0 0 1 64-64h64a64 64 0 0 1 64 64v13.44a345.6 345.6 0 0 1 75.52 32l9.28-9.6a64 64 0 0 1 90.88 0l45.12 44.48a64 64 0 0 1 0 90.88l-9.6 9.28a339.2 339.2 0 0 1 32 75.52z m-38.4 64a32 32 0 0 1-32-25.6A289.92 289.92 0 0 0 752.32 352a32 32 0 0 1 3.84-40.32l27.2-27.2-45.12-43.84-27.2 27.2a32 32 0 0 1-39.04 3.84 289.92 289.92 0 0 0-102.4-41.92 32 32 0 0 1-25.6-32V160h-64v38.4a32 32 0 0 1-25.6 32A289.92 289.92 0 0 0 352 271.68a32 32 0 0 1-40.32-3.84l-27.2-27.2-43.84 45.12 27.2 27.2a32 32 0 0 1 3.84 39.04 289.92 289.92 0 0 0-41.92 102.4 32 32 0 0 1-32 25.6H160v64h38.4a32 32 0 0 1 32 25.6A289.92 289.92 0 0 0 271.68 672a32 32 0 0 1-3.84 40.32l-27.2 27.2 45.12 45.12 27.2-27.2a32 32 0 0 1 39.04-5.12 289.92 289.92 0 0 0 101.12 41.92 32 32 0 0 1 25.6 32V864h64v-38.4a32 32 0 0 1 25.6-32A289.92 289.92 0 0 0 672 752.32a32 32 0 0 1 40.32 3.84l27.2 27.2 45.12-45.12-27.2-27.2a32 32 0 0 1-5.12-39.04 289.92 289.92 0 0 0 41.92-101.12 32 32 0 0 1 32-25.6H864V480z" /></svg>